<svg width="580" height="400" xmlns="http://www.w3.org/2000/svg">
 <!-- Created with Method Draw - http://github.com/duopixel/Method-Draw/ -->
 <g>
  <title>background</title>
  <rect fill="#fff" id="canvas_background" height="402" width="582" y="-1" x="-1"/>
  <g display="none" overflow="visible" y="0" x="0" height="100%" width="100%" id="canvasGrid">
   <rect fill="url(#gridpattern)" stroke-width="0" y="0" x="0" height="100%" width="100%"/>
  </g>
 </g>
 <g>
  <title>Layer 1</title>
  <ellipse stroke="#ffffff" ry="190" rx="190" id="svg_1" cy="200.000002" cx="290.000006" stroke-width="1.5" fill="#000000"/>
  <ellipse stroke="#ffffff" ry="190" rx="190" id="svg_7" cy="200.000002" cx="290.000006" stroke-width="1.5" fill="#000000"/>
  <ellipse stroke="#ffffff" ry="190" rx="190" id="svg_8" cy="200.000002" cx="290.000006" stroke-width="1.5" fill="#000000"/>
  <ellipse stroke="#ffffff" ry="190" rx="190" id="svg_9" cy="200.000002" cx="290.000006" stroke-width="1.5" fill="#000000"/>
  <ellipse stroke="#ffffff" ry="190" rx="190" id="svg_10" cy="200.000002" cx="290.000006" stroke-width="1.5" fill="#000000"/>
  <ellipse stroke="#ffffff" ry="190" rx="190" id="svg_11" cy="200.000002" cx="290.000006" stroke-width="1.5" fill="#000000"/>
  <ellipse stroke="#ffffff" ry="190" rx="190" id="svg_12" cy="200.000002" cx="290.000006" stroke-width="1.5" fill="#000000"/>
  <ellipse stroke="#ffffff" ry="190" rx="190" id="svg_13" cy="200.000002" cx="290.000006" stroke-width="1.5" fill="#000000"/>
  <ellipse stroke="#ffffff" ry="190" rx="190" id="svg_15" cy="200.000002" cx="290.000006" stroke-width="1.5" fill="#000000"/>
  <ellipse stroke="#ffffff" ry="190" rx="190" id="svg_16" cy="200.000002" cx="290.000006" stroke-width="1.5" fill="#000000"/>
  <ellipse stroke="#ffffff" ry="190" rx="190" id="svg_17" cy="200.000002" cx="290.000006" stroke-width="1.5" fill="#000000"/>
  <ellipse stroke="#ffffff" ry="190" rx="190" id="svg_18" cy="200.000002" cx="290.000006" stroke-width="1.5" fill="#000000"/>
 </g>
</svg>